<svg width="20" height="17" viewBox="0 0 20 17" fill="none" xmlns="http://www.w3.org/2000/svg">
<path d="M6 16.9923C5.45 16.9923 4.97933 16.834 4.588 16.5173C4.19667 16.2007 4.00067 15.8195 4 15.374C3.99933 14.9284 4.19533 14.5475 4.588 14.2314C4.98067 13.9153 5.45133 13.7567 6 13.7556C6.54867 13.7546 7.01967 13.9132 7.413 14.2314C7.80633 14.5497 8.002 14.9305 8 15.374C7.998 15.8174 7.80233 16.1985 7.413 16.5173C7.02367 16.8361 6.55267 16.9944 6 16.9923ZM16 16.9923C15.45 16.9923 14.9793 16.834 14.588 16.5173C14.1967 16.2007 14.0007 15.8195 14 15.374C13.9993 14.9284 14.1953 14.5475 14.588 14.2314C14.9807 13.9153 15.4513 13.7567 16 13.7556C16.5487 13.7546 17.0197 13.9132 17.413 14.2314C17.8063 14.5497 18.002 14.9305 18 15.374C17.998 15.8174 17.8023 16.1985 17.413 16.5173C17.0237 16.8361 16.5527 16.9944 16 16.9923ZM5.15 4.04572L7.55 8.09152H14.55L17.3 4.04572H5.15ZM4.2 2.4274H18.95C19.3333 2.4274 19.625 2.56577 19.825 2.8425C20.025 3.11923 20.0333 3.39893 19.85 3.6816L16.3 8.86023C16.1167 9.12995 15.871 9.33898 15.563 9.48733C15.255 9.63567 14.9173 9.70985 14.55 9.70985H7.1L6 11.3282H18V12.9465H6C5.25 12.9465 4.68333 12.6803 4.3 12.1478C3.91667 11.6154 3.9 11.086 4.25 10.5595L5.6 8.57702L2 2.4274H0V0.809082H3.25L4.2 2.4274Z" fill="black"/>
</svg>
