<svg width="14" height="17" viewBox="0 0 14 17" fill="none" xmlns="http://www.w3.org/2000/svg">
<path d="M13.7785 12.3189L12.1629 10.004V6.72277C12.2203 5.85032 11.9941 4.98148 11.5105 4.21668C11.0268 3.45188 10.3053 2.82235 9.42958 2.40088C9.44153 2.26658 9.44153 2.13167 9.42958 1.99736C9.42016 1.72679 9.34982 1.4605 9.22259 1.2137C9.09537 0.966905 8.91374 0.744447 8.6881 0.559044C8.46247 0.373641 8.19724 0.228928 7.90758 0.133178C7.61793 0.0374278 7.30952 -0.00748218 7 0.0010153C6.69048 -0.00748218 6.38207 0.0374278 6.09242 0.133178C5.80276 0.228928 5.53753 0.373641 5.3119 0.559044C5.08626 0.744447 4.90463 0.966905 4.77741 1.2137C4.65018 1.4605 4.57984 1.72679 4.57042 1.99736C4.55253 2.13142 4.55253 2.26683 4.57042 2.40088C3.69465 2.82235 2.97323 3.45188 2.48954 4.21668C2.00586 4.98148 1.77968 5.85032 1.83714 6.72277V10.004L0.221465 12.3189C0.0817071 12.5196 0.00537853 12.7491 0.000273984 12.984C-0.00483056 13.2188 0.0614718 13.4507 0.19241 13.6559C0.323348 13.861 0.514231 14.0321 0.745564 14.1517C0.976898 14.2713 1.24039 14.3351 1.50914 14.3365H3.65932C3.71552 15.0707 4.09486 15.7573 4.71772 16.2523C5.34058 16.7472 6.15856 17.0121 7 16.9912C7.84144 17.0121 8.65942 16.7472 9.28228 16.2523C9.90514 15.7573 10.2845 15.0707 10.3407 14.3365H12.4909C12.7596 14.3351 13.0231 14.2713 13.2544 14.1517C13.4858 14.0321 13.6767 13.861 13.8076 13.6559C13.9385 13.4507 14.0048 13.2188 13.9997 12.984C13.9946 12.7491 13.9183 12.5196 13.7785 12.3189ZM6.08891 1.99736C6.1105 1.80385 6.21798 1.62543 6.3883 1.50037C6.55862 1.37531 6.77821 1.31357 7 1.32838C7.22179 1.31357 7.44138 1.37531 7.6117 1.50037C7.78202 1.62543 7.8895 1.80385 7.91109 1.99736C7.60769 1.98076 7.3034 1.98076 7 1.99736C6.69661 1.98047 6.3923 1.98047 6.08891 1.99736ZM7 15.6639C6.56105 15.6832 6.12987 15.5573 5.79224 15.3114C5.4546 15.0654 5.23525 14.7174 5.17781 14.3365H8.82219C8.76475 14.7174 8.5454 15.0654 8.20776 15.3114C7.87013 15.5573 7.43895 15.6832 7 15.6639ZM1.50914 13.0091L3.13696 10.7048L3.35563 10.3757V6.72277C3.35271 5.92752 3.60525 5.14752 4.0845 4.47156C4.41519 4.07539 4.85739 3.76065 5.36821 3.55785C5.87903 3.35506 6.44113 3.27109 7 3.31411C7.55887 3.27109 8.12097 3.35506 8.63179 3.55785C9.14261 3.76065 9.58481 4.07539 9.9155 4.47156C10.3948 5.14752 10.6473 5.92752 10.6444 6.72277V10.3757L10.863 10.7048L12.4909 13.0091H1.50914Z" fill="black"/>
</svg>
