<svg width="17" height="16" viewBox="0 0 17 16" fill="none" xmlns="http://www.w3.org/2000/svg">
<path d="M15.5272 15.5138C15.9297 15.9163 16.5509 15.295 16.1484 14.9013L12.8672 11.6112C14.0185 10.3379 14.6547 8.68167 14.6522 6.965C14.6522 3.12375 11.5284 0 7.68717 0C3.84592 0 0.722168 3.12375 0.722168 6.965C0.722168 10.8063 3.84592 13.93 7.68717 13.93C9.41967 13.93 11.0209 13.2913 12.2459 12.2325L15.5272 15.5138ZM1.59629 6.965C1.59629 3.605 4.33504 0.875 7.68629 0.875C11.0463 0.875 13.7763 3.605 13.7763 6.965C13.7763 10.325 11.0463 13.055 7.68629 13.055C4.33504 13.055 1.59629 10.325 1.59629 6.965Z" fill="black" fill-opacity="0.44"/>
</svg>
