<svg width="27" height="26" viewBox="0 0 27 26" fill="none" xmlns="http://www.w3.org/2000/svg">
<path d="M24.5312 10.8783H23.625V10.8333H13.5V15.1667H19.8579C18.9304 17.6892 16.4379 19.5 13.5 19.5C9.77231 19.5 6.75 16.5896 6.75 13C6.75 9.41037 9.77231 6.5 13.5 6.5C15.2207 6.5 16.7861 7.12508 17.9781 8.14612L21.1601 5.08192C19.1509 3.27871 16.4633 2.16667 13.5 2.16667C7.28719 2.16667 2.25 7.01729 2.25 13C2.25 18.9827 7.28719 23.8333 13.5 23.8333C19.7128 23.8333 24.75 18.9827 24.75 13C24.75 12.2736 24.6724 11.5646 24.5312 10.8783Z" fill="#FFC107"/>
<path d="M3.54712 7.95762L7.24331 10.5679C8.24343 8.1835 10.6656 6.5 13.5 6.5C15.2207 6.5 16.7861 7.12508 17.9781 8.14612L21.1601 5.08192C19.1509 3.27871 16.4632 2.16667 13.5 2.16667C9.17887 2.16667 5.43149 4.51588 3.54712 7.95762Z" fill="#FF3D00"/>
<path d="M13.4999 23.8333C16.4058 23.8333 19.0462 22.7625 21.0425 21.021L17.5606 18.1838C16.3932 19.0387 14.9666 19.5011 13.4999 19.5C10.5738 19.5 8.08924 17.7033 7.15324 15.1959L3.48462 17.9178C5.34649 21.4262 9.12762 23.8333 13.4999 23.8333Z" fill="#4CAF50"/>
<path d="M24.5312 10.8783H23.625V10.8333H13.5V15.1667H19.8579C19.4142 16.3672 18.615 17.4163 17.559 18.1843L17.5607 18.1832L21.0426 21.0205C20.7962 21.236 24.75 18.4167 24.75 13C24.75 12.2736 24.6724 11.5646 24.5312 10.8783Z" fill="#1976D2"/>
</svg>
