<svg width="20" height="20" viewBox="0 0 20 20" fill="none" xmlns="http://www.w3.org/2000/svg">
<path d="M10 0.179199C4.5 0.179199 0 4.53735 0 9.90496C0 14.7581 3.66 18.7863 8.44 19.5142V12.7198H5.9V9.90496H8.44V7.75986C8.44 5.32356 9.93 3.98409 12.22 3.98409C13.31 3.98409 14.45 4.16851 14.45 4.16851V6.56597H13.19C11.95 6.56597 11.56 7.31336 11.56 8.08016V9.90496H14.34L13.89 12.7198H11.56V19.5142C13.9164 19.153 16.0622 17.986 17.6099 16.2238C19.1576 14.4617 20.0054 12.2205 20 9.90496C20 4.53735 15.5 0.179199 10 0.179199Z" fill="#F8F8F8"/>
</svg>
