<svg width="20" height="20" viewBox="0 0 20 20" fill="none" xmlns="http://www.w3.org/2000/svg">
<path d="M10.0402 0.179251C4.55276 0.179251 0.0804022 4.48129 0.0804022 9.75974C0.0804022 11.4515 0.542714 13.095 1.40704 14.5451L0 19.5142L5.27638 18.1801C6.73367 18.9439 8.37186 19.3499 10.0402 19.3499C15.5276 19.3499 20 15.0479 20 9.76941C20 7.20752 18.9648 4.80031 17.0854 2.99249C16.1639 2.09738 15.0664 1.38766 13.8568 0.904664C12.6472 0.421672 11.3498 0.175078 10.0402 0.179251ZM10.0503 1.79372C12.2613 1.79372 14.3317 2.62513 15.8995 4.13326C16.6687 4.87332 17.2786 5.75209 17.6943 6.71923C18.1099 7.68637 18.3231 8.72289 18.3216 9.76941C18.3216 14.1584 14.603 17.7258 10.0402 17.7258C8.55276 17.7258 7.09548 17.3487 5.82915 16.614L5.52764 16.4496L2.39196 17.2424L3.22613 14.3035L3.02513 13.9941C2.19552 12.7261 1.75645 11.2579 1.75879 9.75974C1.76884 5.3707 5.47739 1.79372 10.0503 1.79372ZM6.51256 5.33203C6.35176 5.33203 6.0804 5.39003 5.84925 5.63172C5.62814 5.8734 4.97487 6.46312 4.97487 7.63289C4.97487 8.81232 5.86935 9.94342 5.9799 10.1078C6.1206 10.2721 7.74874 12.689 10.2513 13.7137C10.8442 13.9748 11.3065 14.1198 11.6683 14.2261C12.2613 14.4098 12.804 14.3808 13.2362 14.3228C13.7186 14.2551 14.7035 13.7427 14.9146 13.182C15.1256 12.6213 15.1256 12.1476 15.0653 12.0413C14.995 11.9446 14.8342 11.8866 14.5829 11.7802C14.3317 11.6449 13.1055 11.0648 12.8844 10.9875C12.6533 10.9102 12.5126 10.8715 12.3216 11.1035C12.1608 11.3452 11.6784 11.8866 11.5377 12.0413C11.3869 12.2056 11.2462 12.2249 11.005 12.1089C10.7437 11.9833 9.9397 11.7319 8.99497 10.9198C8.25126 10.2818 7.75879 9.49872 7.60804 9.25703C7.48744 9.02501 7.59799 8.88 7.71859 8.77365C7.82914 8.66731 7.98995 8.4933 8.09045 8.34828C8.2211 8.21294 8.26131 8.1066 8.34171 7.95192C8.42211 7.78757 8.38191 7.65222 8.32161 7.53621C8.26131 7.42987 7.75879 6.2311 7.54774 5.7574C7.34673 5.29336 7.14573 5.35136 6.98492 5.34169C6.84422 5.34169 6.68342 5.33203 6.51256 5.33203Z" fill="#F8F8F8"/>
</svg>
