<svg width="30" height="20" viewBox="0 0 30 20" fill="none" xmlns="http://www.w3.org/2000/svg">
<path d="M20.7445 9.79411C23.1107 9.79411 25.1464 7.68125 25.1464 4.92982C25.1464 2.21161 23.1 0.197861 20.7445 0.197861C18.3895 0.197861 16.3425 2.25554 16.3425 4.95179C16.3425 7.68125 18.3782 9.79411 20.7445 9.79411ZM8.0775 10.0475C10.1245 10.0475 11.9079 8.19822 11.9079 5.81C11.9079 3.44429 10.1132 1.69411 8.0775 1.69411C6.03107 1.69411 4.22571 3.48822 4.23696 5.8325C4.23696 8.19822 6.01982 10.0475 8.07804 10.0475M1.93714 19.985H10.3007C9.15643 18.3232 10.5541 14.9777 12.9204 13.1509C11.6989 12.3366 10.1245 11.7313 8.06678 11.7313C3.10339 11.7307 0 15.395 0 18.4438C0 19.4348 0.550179 19.985 1.93714 19.985ZM13.8225 19.985H27.6557C29.3834 19.985 30 19.4895 30 18.5209C30 15.6816 26.445 11.7639 20.7337 11.7639C15.0332 11.7639 11.4782 15.6816 11.4782 18.5214C11.4782 19.4895 12.0943 19.985 13.8225 19.985Z" fill="white"/>
</svg>
