<svg width="30" height="31" viewBox="0 0 30 31" fill="none" xmlns="http://www.w3.org/2000/svg">
<path d="M20.7445 15.7941C23.1107 15.7941 25.1464 13.6813 25.1464 10.9298C25.1464 8.21161 23.1 6.19786 20.7445 6.19786C18.3895 6.19786 16.3425 8.25554 16.3425 10.9518C16.3425 13.6813 18.3782 15.7941 20.7445 15.7941ZM8.0775 16.0475C10.1245 16.0475 11.9079 14.1982 11.9079 11.81C11.9079 9.44429 10.1132 7.69411 8.0775 7.69411C6.03107 7.69411 4.22571 9.48822 4.23696 11.8325C4.23696 14.1982 6.01982 16.0475 8.07804 16.0475M1.93714 25.985H10.3007C9.15643 24.3232 10.5541 20.9777 12.9204 19.1509C11.6989 18.3366 10.1245 17.7313 8.06678 17.7313C3.10339 17.7307 0 21.395 0 24.4438C0 25.4348 0.550179 25.985 1.93714 25.985ZM13.8225 25.985H27.6557C29.3834 25.985 30 25.4895 30 24.5209C30 21.6816 26.445 17.7639 20.7337 17.7639C15.0332 17.7639 11.4782 21.6816 11.4782 24.5214C11.4782 25.4895 12.0943 25.985 13.8225 25.985Z" fill="white"/>
</svg>
